HIERARCHY
ROOT Hips
{
 OFFSET 0.000000 0.000000 0.000000
 CHANNELS 6 Xposition Yposition Zposition Yrotation Xrotation Zrotation
 JOINT Chest
 {
  OFFSET 0.000000 9.585900 0.002600
  CHANNELS 3 Yrotation Xrotation Zrotation
  JOINT Chest2
  {
   OFFSET 0.000000 9.601200 -0.005300
   CHANNELS 3 Yrotation Xrotation Zrotation
   JOINT Chest3
   {
    OFFSET 0.000000 9.561800 0.000000
    CHANNELS 3 Yrotation Xrotation Zrotation
    JOINT Chest4
    {
     OFFSET 0.000000 9.552100 0.000000
     CHANNELS 3 Yrotation Xrotation Zrotation
     JOINT Neck
     {
      OFFSET 0.000000 14.453000 0.000000
      CHANNELS 3 Yrotation Xrotation Zrotation
      JOINT Head
      {
       OFFSET 0.000000 8.936500 -0.011300
       CHANNELS 3 Yrotation Xrotation Zrotation
       End Site
       {
        OFFSET 0.000000 17.073600 -0.006000
       }
      }
     }
     JOINT RightCollar
     {
      OFFSET -2.921100 9.558500 0.000000
      CHANNELS 3 Yrotation Xrotation Zrotation
      JOINT RightShoulder
      {
       OFFSET -13.519700 0.000000 0.000000
       CHANNELS 3 Yrotation Xrotation Zrotation
       JOINT RightElbow
       {
        OFFSET 0.000000 -29.696600 0.000000
        CHANNELS 3 Yrotation Xrotation Zrotation
        JOINT RightWrist
        {
         OFFSET 0.000000 -24.004700 0.000000
         CHANNELS 3 Yrotation Xrotation Zrotation
         End Site
         {
          OFFSET 0.000000 -17.728500 0.000000
         }
        }
       }
      }
     }
     JOINT LeftCollar
     {
      OFFSET 2.921100 9.558500 0.000000
      CHANNELS 3 Yrotation Xrotation Zrotation
      JOINT LeftShoulder
      {
       OFFSET 13.519700 0.000000 0.000000
       CHANNELS 3 Yrotation Xrotation Zrotation
       JOINT LeftElbow
       {
        OFFSET 0.000000 -29.696600 0.000000
        CHANNELS 3 Yrotation Xrotation Zrotation
        JOINT LeftWrist
        {
         OFFSET 0.000000 -24.004700 0.000000
         CHANNELS 3 Yrotation Xrotation Zrotation
         End Site
         {
          OFFSET 0.000000 -17.728500 0.000000
         }
        }
       }
      }
     }
    }
   }
  }
 }
 JOINT RightHip
 {
  OFFSET -7.771700 -0.012900 -0.001300
  CHANNELS 3 Yrotation Xrotation Zrotation
  JOINT RightKnee
  {
   OFFSET 0.000000 -40.869800 0.001200
   CHANNELS 3 Yrotation Xrotation Zrotation
   JOINT RightAnkle
   {
    OFFSET 0.000000 -39.717900 0.002100
    CHANNELS 3 Yrotation Xrotation Zrotation
    JOINT RightToe
    {
     OFFSET 0.000000 -4.965400 11.033500
     CHANNELS 3 Yrotation Xrotation Zrotation
     End Site
     {
      OFFSET 0.000000 -1.423100 5.872300
     }
    }
   }
  }
 }
 JOINT LeftHip
 {
  OFFSET 7.771700 -0.012900 -0.001300
  CHANNELS 3 Yrotation Xrotation Zrotation
  JOINT LeftKnee
  {
   OFFSET 0.000000 -40.869800 0.001200
   CHANNELS 3 Yrotation Xrotation Zrotation
   JOINT LeftAnkle
   {
    OFFSET 0.000000 -39.717900 0.002100
    CHANNELS 3 Yrotation Xrotation Zrotation
    JOINT LeftToe
    {
     OFFSET 0.000000 -4.965400 11.033500
     CHANNELS 3 Yrotation Xrotation Zrotation
     End Site
     {
      OFFSET 0.000000 -1.423100 5.872300
     }
    }
   }
  }
 }
}
MOTION
Frames: 12
Frame Time: 0.008333
-75.522626 47.028530 -7.366047 176.876499 -31.594790 -4.057064 1.111980 18.605045 1.885386 0.098494 2.191483 0.190022 0.132503 3.553694 0.289377 0.852644 16.254789 1.432624 -0.326890 19.826895 0.778138 -0.831902 1.032690 1.518139 -1.439345 -1.082054 -3.692660 -0.648014 -7.269532 -13.712326 -69.566135 -73.096047 111.572808 1.702688 5.188673 -21.317045 1.097461 -0.812707 4.358062 -1.188219 -7.707710 14.142591 114.041678 -77.776178 -147.130634 -5.197096 12.905080 8.090152 -1.980772 -55.361877 -3.781643 -148.343232 77.442014 -139.704306 -8.702291 -22.033473 -3.686018 0.292175 -0.794927 -0.022411 -2.449494 -57.314931 12.355752 -111.259652 82.664908 -115.679878 7.046336 -6.070288 6.117121 -0.039835 -0.007843 -0.162511
-75.532311 47.008745 -7.383583 176.808776 -31.568042 -3.968682 1.170258 18.618824 1.854731 0.096169 2.195072 0.184315 0.136579 3.532133 0.281257 0.924037 16.291211 1.418421 -0.388060 19.668984 0.644510 -0.904912 0.738594 1.294563 -1.375541 -1.111579 -3.673995 -0.409587 -7.283289 -13.688457 -68.234609 -72.562128 110.507635 1.633600 5.217759 -20.985200 1.036730 -0.842164 4.361373 -1.418714 -7.538111 14.089458 112.915259 -77.723273 -146.283072 -5.182348 12.760321 7.870604 -2.324120 -55.351995 -3.986872 -147.593163 77.338627 -138.936156 -8.782386 -21.901409 -3.715162 0.276397 -0.831027 -0.075185 -2.253451 -57.368469 12.169282 -111.654591 82.660545 -116.017090 7.074924 -6.107017 6.126671 -0.037091 -0.003006 -0.182119
-75.543265 46.989513 -7.401930 176.789461 -31.540299 -3.890062 1.165998 18.680223 1.813778 0.104403 2.153777 0.166005 0.156334 3.537713 0.277134 0.972921 16.300953 1.402536 -0.444344 19.515853 0.502849 -0.965985 0.453159 1.054699 -1.311935 -1.134965 -3.656812 -0.159564 -7.300999 -13.668497 -66.993505 -72.025792 109.539747 1.579363 5.239477 -20.624706 0.985919 -0.874039 4.358726 -1.628889 -7.373146 14.032149 111.768471 -77.673716 -145.428331 -5.177009 12.613499 7.645412 -2.677340 -55.349376 -4.208761 -146.903274 77.226865 -138.235920 -8.816359 -21.780635 -3.734442 0.214386 -0.855132 -0.137315 -2.109515 -57.412116 12.004870 -111.901353 82.657070 -116.238975 7.064043 -6.136595 6.149722 -0.017280 0.002862 -0.142828
-75.553981 46.968971 -7.417001 176.652091 -31.495386 -3.743560 1.250296 18.651566 1.739316 0.109760 2.143296 0.161947 0.181880 3.632098 0.287643 1.013382 16.256248 1.380743 -0.495265 19.368965 0.355370 -1.014970 0.179255 0.802463 -1.247932 -1.151122 -3.638953 0.099222 -7.328509 -13.654926 -65.795313 -71.476317 108.627020 1.539512 5.248910 -20.242571 0.967281 -0.865704 4.321506 -1.842584 -7.256408 14.004021 110.608318 -77.622603 -144.570065 -5.173467 12.467267 7.425730 -2.914158 -55.383415 -4.428262 -146.282741 77.113985 -137.609208 -8.892636 -21.687360 -3.754837 0.180176 -0.852149 -0.174983 -1.861212 -57.474672 11.833754 -112.129604 82.655869 -116.445363 7.062814 -6.152519 6.180802 -0.000873 -0.004328 -0.148059
-75.562202 46.950786 -7.433685 176.539015 -31.462276 -3.614304 1.314032 18.637044 1.668925 0.100835 2.204825 0.172658 0.199534 3.574154 0.272713 1.041740 16.259905 1.372940 -0.520600 19.259009 0.191434 -1.049781 -0.079815 0.542812 -1.157105 -1.132621 -3.629060 0.365944 -7.369065 -13.650217 -64.613952 -70.908506 107.742289 1.504999 5.246073 -19.855770 1.012571 -0.764341 4.219858 -2.067474 -7.207807 14.029976 109.441231 -77.566550 -143.712305 -5.165049 12.317366 7.215544 -3.163609 -55.408676 -4.628744 -145.746777 77.008280 -137.064888 -8.982488 -21.597764 -3.782009 0.150221 -0.849960 -0.200302 -1.620781 -57.527401 11.627946 -112.523422 82.668514 -116.791944 7.093073 -6.182675 6.189634 -0.010687 -0.007265 -0.169022
-75.563466 46.935118 -7.450796 176.433800 -31.437837 -3.519425 1.371315 18.654438 1.634568 0.101326 2.205960 0.166504 0.217215 3.553261 0.267318 1.097185 16.304184 1.352077 -0.568711 19.113746 0.048386 -1.071045 -0.323084 0.281026 -1.153478 -1.178776 -3.594109 0.696521 -7.401613 -13.654323 -63.449277 -70.319602 106.883356 1.463703 5.231640 -19.486214 1.005686 -0.736446 4.176473 -2.240142 -7.131264 14.017454 108.277045 -77.509202 -142.872308 -5.147990 12.158587 7.016914 -3.444984 -55.426497 -4.766776 -145.296073 76.914606 -136.601389 -9.061304 -21.503451 -3.821463 0.124561 -0.853536 -0.217982 -1.469896 -57.560969 11.539641 -112.784468 82.652667 -117.032144 7.100989 -6.225244 6.196158 0.005572 -0.001426 -0.152119
-75.558343 46.921696 -7.467480 176.317488 -31.417697 -3.444598 1.432837 18.673041 1.616557 0.104331 2.209880 0.157554 0.233474 3.555166 0.268434 1.149618 16.323058 1.324153 -0.605535 18.976787 -0.092131 -1.079671 -0.552604 0.021703 -1.136749 -1.222356 -3.553711 1.032962 -7.444540 -13.671121 -62.318567 -69.711605 106.063179 1.413728 5.203205 -19.150706 0.996532 -0.719456 4.156133 -2.375020 -7.044354 13.983740 107.135439 -77.453424 -142.068102 -5.121465 11.999530 6.837708 -3.732518 -55.441989 -4.851052 -144.929413 76.837223 -136.217956 -9.119808 -21.400177 -3.869942 0.103793 -0.861768 -0.233327 -1.355296 -57.589068 11.499980 -113.053640 82.620771 -117.261540 7.115275 -6.278211 6.175172 0.038300 0.009579 -0.129355
-75.553826 46.908664 -7.481570 176.219139 -31.381214 -3.362856 1.469089 18.680147 1.572632 0.099886 2.222465 0.152086 0.256814 3.546130 0.265314 1.186011 16.326204 1.302660 -0.626913 18.860776 -0.235666 -1.073964 -0.769108 -0.233505 -1.063610 -1.231651 -3.506739 1.342402 -7.512785 -13.711471 -61.239913 -69.099023 105.287821 1.353738 5.159669 -18.852598 0.991579 -0.728730 4.159803 -2.482971 -6.916904 13.916748 106.032315 -77.399591 -141.300542 -5.089606 11.851001 6.683701 -3.986837 -55.476221 -4.958402 -144.662045 76.780991 -135.926668 -9.180427 -21.289929 -3.919346 0.092425 -0.870218 -0.247682 -1.255228 -57.627490 11.449782 -113.228532 82.613417 -117.424790 7.125832 -6.312723 6.183314 0.048013 0.017612 -0.138989
-75.547434 46.897899 -7.495553 176.126641 -31.348609 -3.280952 1.494801 18.690770 1.522320 0.113010 2.211623 0.149167 0.259547 3.561115 0.259121 1.218267 16.326828 1.281941 -0.639850 18.752905 -0.374004 -1.053944 -0.970213 -0.482226 -0.995734 -1.245605 -3.457292 1.675829 -7.581158 -13.761940 -60.215177 -68.498392 104.551455 1.284097 5.104281 -18.582350 0.995726 -0.733369 4.162727 -2.584645 -6.787301 13.845138 104.985859 -77.353008 -140.576145 -5.057338 11.711994 6.547956 -4.208591 -55.507790 -5.073800 -144.506214 76.749853 -135.737490 -9.235872 -21.161538 -3.966734 0.084063 -0.885594 -0.265745 -1.163474 -57.654298 11.400053 -113.361970 82.612542 -117.550092 7.134944 -6.349190 6.173485 0.049929 0.031077 -0.151384
-75.537460 46.888432 -7.507572 176.051788 -31.308167 -3.215709 1.506064 18.693496 1.477552 0.144408 2.178198 0.150354 0.210285 3.637884 0.239521 1.279709 16.273686 1.275300 -0.651018 18.664019 -0.512066 -1.019772 -1.154624 -0.719754 -0.890142 -1.225265 -3.403740 1.981309 -7.669403 -13.827899 -59.237674 -67.919057 103.848461 1.212312 5.040788 -18.328188 0.996273 -0.617186 4.103426 -2.673113 -6.754318 13.828666 104.008472 -77.321333 -139.906706 -5.028215 11.580485 6.429154 -4.429666 -55.546436 -5.175372 -144.462813 76.750118 -135.655156 -9.269356 -21.004582 -4.018609 0.078047 -0.909724 -0.285964 -1.066870 -57.697775 11.355912 -113.457090 82.602767 -117.632364 7.133765 -6.365289 6.179708 0.031934 0.028888 -0.136618
-75.524909 46.881070 -7.519457 175.985652 -31.273264 -3.156124 1.479758 18.720685 1.418802 0.176755 2.155087 0.150250 0.232665 3.617640 0.239909 1.295067 16.265479 1.271918 -0.671562 18.603383 -0.655678 -0.971269 -1.322727 -0.943882 -0.836059 -1.203173 -3.378648 2.333577 -7.739506 -13.880821 -58.310131 -67.361566 103.187584 1.146424 4.976423 -18.086859 0.967612 -0.530880 4.063543 -2.737311 -6.662135 13.770470 103.108488 -77.303573 -139.298189 -5.002361 11.464416 6.332837 -4.634277 -55.579396 -5.274864 -144.528480 76.783258 -135.674018 -9.294700 -20.817342 -4.081068 0.074682 -0.941138 -0.302567 -0.991086 -57.727711 11.318007 -113.526562 82.604607 -117.696178 7.145309 -6.391695 6.207765 0.032365 0.029623 -0.105131
-75.507313 46.876198 -7.532031 175.918779 -31.252794 -3.112699 1.522857 18.705684 1.404685 0.151011 2.180849 0.143599 0.252521 3.601887 0.240259 1.293610 16.288427 1.243355 -0.672330 18.520309 -0.765327 -0.909379 -1.475311 -1.155155 -0.795832 -1.222936 -3.344631 2.703218 -7.801273 -13.923327 -57.435337 -66.824538 102.578685 1.092048 4.921600 -17.860235 0.967691 -0.534697 4.075435 -2.829102 -6.506325 13.674111 102.284804 -77.288744 -138.736370 -4.984238 11.375282 6.256920 -4.828962 -55.597775 -5.352707 -144.701361 76.842960 -135.788326 -9.304914 -20.596477 -4.154654 0.068656 -0.981795 -0.316887 -0.952045 -57.735434 11.314245 -113.637130 82.616857 -117.795438 7.160448 -6.435951 6.255235 0.026991 0.049163 -0.155817
